<?xml version="1.0" encoding="utf-8"?>
<!-- Generator: Adobe Illustrator 22.0.1, SVG Export Plug-In . SVG Version: 6.00 Build 0)  -->
<svg version="1.1" id="Layer_1" xmlns="http://www.w3.org/2000/svg" xmlns:xlink="http://www.w3.org/1999/xlink" x="0px" y="0px"
	 viewBox="0 0 363.2 106.4" style="enable-background:new 0 0 363.2 106.4;" xml:space="preserve">
<style type="text/css">
	.st0{fill:#FFFFFF;}
</style>
<rect x="0" width="363" height="106.2"/>
<g>
	<path class="st0" d="M186.5,40c59,0,117.8,0,176.7,0c0-13.4,0-26.6,0-39.8c-58.9,0-117.8,0-176.7,0C186.5,13.5,186.5,26.7,186.5,40
		z M172.4,67c-57.6,0-115,0-172.4,0c0,13.2,0,26.2,0,39.2c57.5,0,115,0,172.4,0C172.4,93.1,172.4,80.1,172.4,67z M284.5,106.3
		c0.4,0,0.6,0.1,0.8,0.1c11.4,0,22.8,0.1,34.2-0.1c6.1-0.1,12.1-0.8,17.9-3c13.7-5.3,23.4-14.5,25.4-29.7
		c1.3-9.8-2.5-19.3-12.7-24.2c-5.8-2.8-12-3.7-18.4-3.7c-9.3-0.1-18.5,0-27.8-0.1c-1.4,0-1.9,0.4-2.3,1.7
		c-3.7,12.9-7.4,25.7-11.2,38.5C288.5,92.6,286.5,99.3,284.5,106.3z M112.5,0c-5.9,20.3-11.7,40.4-17.6,60.7c3.9,0,7.6,0,11.4,0
		c2.4-8.2,4.7-16.3,7.1-24.5c0.6,0,1.1,0,1.7,0c6,0,12.1,0.2,18.1,0c5.8-0.2,11.5-0.6,17.2-1.3c6.1-0.8,11.6-3.1,16-7.6
		c3.1-3.2,5.3-6.9,5.5-11.5c0.3-6.6-4.3-12.7-11.4-14.4c-3.5-0.9-7.3-1.2-11-1.3C137.6-0.1,125.8,0,113.9,0C113.5,0,113,0,112.5,0z
		 M187.1,45.7c0,0.3,0,0.4,0,0.5c5.2,19.7,10.5,39.4,15.6,59.1c0.3,1,0.7,1.1,1.6,1.1c3.2,0,6.4-0.1,9.6,0c1,0,1.7-0.3,2.3-1.1
		c14.7-19.5,29.5-39,44.2-58.5c0.3-0.3,0.5-0.7,0.8-1.2c-3.6,0-6.9,0-10.2,0c-1,0-1.6,0.3-2.1,1.1C239,59.8,229.1,73,219.2,86.1
		c-2.7,3.7-5.3,7.5-7.8,10.9c-4.5-17-9-34.2-13.5-51.4C194.2,45.7,190.7,45.7,187.1,45.7z M57.5,53.8c-14.7,0-29.1,0-43.6,0
		c5.2-18,10.4-35.8,15.6-53.7c-3.9,0-7.6,0-11.3,0C12.3,20.3,6.4,40.5,0.6,60.7c18.4,0,36.6,0,55,0C56.1,58.5,56.8,56.3,57.5,53.8z"
		/>
	<path class="st0" d="M186.5,40c0-13.3,0-26.5,0-39.8c58.9,0,117.7,0,176.7,0c0,13.3,0,26.5,0,39.8C304.3,40,245.5,40,186.5,40z
		 M201.7,21.2c-1.6,5.4-3.1,11-4.8,17c4.6-0.2,9-0.2,13.4-0.7c3.2-0.4,5.7-2.4,7.3-5.1c2.4-3.9,1.8-10.2-4.8-11.1
		C209.3,20.9,205.6,21.2,201.7,21.2z M202.9,1.4c1.3,5.1,2.6,10.1,4,15.2c0.2,0.6,0.6,1.6,0.9,1.6c1.3,0,2.6,0.7,3.7-0.8
		c2.3-3.3,4.8-6.5,7.3-9.7c1.5-2,3.1-4.1,4.7-6.2c-2-0.4-3.5-0.2-4.6,1.6c-1.5,2.4-3.3,4.5-4.9,6.7c-1.4,1.9-2.8,3.8-4.2,5.7
		c-1-4-2-7.8-3.1-11.7C206,1,205.9,1,202.9,1.4z M335.2,37.8c2.1,0.3,2.1,0.3,2.6-1.4c0.8-2.6,1.5-5.2,2.3-7.9
		c0.3,0.4,0.4,0.7,0.6,0.9c1.5,2.6,3.1,5.2,4.6,7.8c0.5,0.9,1.2,0.9,1.9,0.8c0.4,0,0.9-0.3,1-0.6c1.1-3.7,2.2-7.4,3.3-11.1
		c-2.1-0.2-2.1-0.2-2.7,1.5c-0.8,2.6-1.5,5.2-2.2,7.8c-1.7-2.9-3.4-5.8-5.2-8.7c-0.3-0.5-1.2-0.6-1.9-0.8c-0.3-0.1-0.9,0.3-1,0.6
		C337.3,30.5,336.3,34.1,335.2,37.8z M319.5,33.4c-0.6,1.1-0.9,2.3-1.6,2.6c-1.3,0.6-2.9,1-4.4,1c-3.3,0-4.8-2.3-3.9-5.4
		c0.9-3.2,4.3-5.1,7.6-4.3c0.8,0.2,2,0.5,2.3,1.2c0.7,1.3,1.7,1.2,3,0.8c-0.7-0.9-1.4-2.2-2.4-2.5c-1.9-0.6-3.9-0.9-5.9-0.7
		c-2.9,0.2-5.2,1.7-6.6,4.5c-1.7,3.4-0.1,6.7,3.6,7.6c2.9,0.7,5.7,0.2,8.4-0.9c0.4-0.1,0.8-0.5,0.9-0.9c0.4-1.3,0.8-2.6,1.2-4.1
		c-2.3,0-4.4,0-6.5,0c-0.4,0-0.7,0.5-1.1,0.8c0.1,0.1,0.1,0.3,0.2,0.4C316,33.4,317.5,33.4,319.5,33.4z M269.7,9.6
		c-0.7-0.9-1.1-1.7-1.7-2.3c-2-1.7-7.2-1.7-9.3-0.1c-1.6,1.2-1.6,3,0.1,4.1c1,0.6,2.1,1,3.2,1.4c1,0.4,2.1,0.7,3.1,1.2
		c1.2,0.6,1.2,1.7,0.1,2.5c-2.6,1.9-6.6,0.8-7.7-2.2c-0.6,0.1-1.3,0.2-2,0.3c-0.1,0.2-0.2,0.3-0.3,0.5c0.7,0.9,1.2,2.2,2.1,2.6
		c3.1,1.5,6.4,1.5,9.4-0.3c2.1-1.3,2-3.5-0.2-4.7c-0.6-0.3-1.3-0.6-2-0.8c-1.3-0.5-2.6-0.8-3.8-1.4c-0.5-0.2-1-0.9-1-1.3
		c0-0.5,0.5-1.1,1-1.3c2.4-1.3,5.4-0.3,6.6,2.1C268.1,9.8,268.7,9.7,269.7,9.6z M274.6,29.7c0.6-0.1,1.3-0.2,2.5-0.3
		c-0.8-1-1.3-2-2.1-2.4c-2.9-1.5-5.9-1.6-8.8,0c-1.9,1-1.9,3.2,0,4.4c0.7,0.5,1.5,0.7,2.3,1c1.2,0.5,2.4,0.8,3.5,1.3
		c0.5,0.2,1.1,0.9,1.1,1.3c0,0.5-0.5,1.2-1,1.5c-2.7,1.7-6.2,0.6-7.4-2.4c-0.6,0.1-1.2,0.1-1.9,0.2c0,1.7,0.8,2.9,2.2,3.4
		c2.9,1,5.7,1.1,8.5-0.2c1.1-0.5,2-1.3,1.9-2.6c0-1.4-1-2-2.1-2.5c-0.5-0.3-1.1-0.4-1.7-0.6c-1.3-0.5-2.6-0.9-3.8-1.4
		c-1.1-0.5-1.2-1.7-0.2-2.4C269.8,26.2,273.6,27.1,274.6,29.7z M239.1,26.2c-1.1,3.9-2.2,7.8-3.3,11.8c4.1,0,7.9,0,11.7,0
		c0.4,0,0.8-0.5,1.2-0.8c-0.1-0.1-0.1-0.3-0.2-0.4c-3.4,0-6.7,0-10.2,0c0.3-1.1,0.6-2.1,0.8-3.1c0.2-0.9,0.7-1.2,1.6-1.2
		c2.4,0.1,4.8,0,7.1,0c0.8,0,1.4-0.2,1.2-1.2c-3,0-6.1,0-9.2,0c0.3-1,0.6-1.8,0.7-2.7c0.2-1,0.7-1.3,1.6-1.3c2.5,0.1,5,0,7.4,0
		c0.9,0,1.4-0.2,1-1.2C247,26.2,243.1,26.2,239.1,26.2z M284.8,6.5c-0.7,2.5-1.4,4.8-2,7.2c-0.6,2.3,0.2,4,2.6,4.4
		c2,0.3,4.1,0.3,6.1,0c1.8-0.3,3.2-1.6,3.8-3.4c0.9-2.7,1.6-5.4,2.4-8.1c-1.6-0.5-2.4-0.1-2.8,1.5c-0.4,2.1-1.1,4.1-1.8,6.1
		c-0.9,2.4-3.2,3.6-5.7,3c-2.4-0.5-2.9-1.4-2.2-3.8c0.6-2.3,1.3-4.6,1.9-7C286.2,6.5,285.5,6.5,284.8,6.5z M322.1,18.2
		c-0.9-4-1.8-7.9-2.7-11.6c-2-0.6-3.2,0.1-4.1,1.6c-1.1,1.6-2.4,3.1-3.6,4.7c-1.3,1.7-2.7,3.5-4.1,5.2c1.6,0.4,2.7,0,3.5-1.3
		c0.5-0.8,1.3-1.7,2-1.8c2-0.3,4-0.1,6-0.1c0.3,1.2,0.6,2.3,0.9,3.3C320.7,18.2,321.3,18.2,322.1,18.2z M335.3,18.3
		c3.4,0,6.7,0,10,0c0.4,0,0.8-0.5,1.1-0.8c-0.1-0.1-0.1-0.3-0.2-0.4c-2.7,0-5.4,0-8.3,0c1-3.6,1.9-7,2.9-10.4
		c-0.1-0.1-0.2-0.3-0.3-0.4c-0.7,0.3-1.9,0.5-2.1,1C337.4,10.8,336.4,14.4,335.3,18.3z M292.3,26.2c-1.1,4-2.2,7.8-3.4,11.8
		c0.8,0,1.5,0,2.3,0c1.1-3.9,2.2-7.8,3.4-11.8C293.7,26.2,293.1,26.2,292.3,26.2z M241.2,6.5c-1.1,3.9-2.2,7.8-3.4,11.7
		c0.9,0,1.6,0,2.3,0c1.1-3.9,2.2-7.8,3.4-11.7C242.7,6.5,242.1,6.5,241.2,6.5z"/>
	<path class="st0" d="M172.4,67c0,13.1,0,26.1,0,39.2c-57.5,0-114.9,0-172.4,0c0-13,0-26.1,0-39.2C57.4,67,114.8,67,172.4,67z
		 M57.3,92.4c-0.8,3-1.6,6-2.4,9.1c3.5,0,6.9,0,10.3,0c0.4,0,0.8-0.5,1.1-0.8c-0.1-0.2-0.1-0.3-0.2-0.5c-2.9,0-5.8,0-8.9,0
		c0.4-1.3,0.8-2.5,1.1-3.6c2.5,0,4.8,0,7.1,0c0.8,0,1.4-0.1,1.2-1.3c-2.6,0-5.2,0-8,0c0.3-1.1,0.6-2.1,0.9-3c2.6,0,5,0,7.4,0
		c0.8,0,1.4-0.1,1.2-1.2c-3.2,0-6.5,0-9.7,0c-0.3,0-0.5,0.2-0.8,0.3c-0.5-0.1-0.9-0.3-1.4-0.3c-2.9,0-5.8,0-8.7,0
		c-1,0-1.6,0.2-1.9,1.2c-0.8-0.4-1.6-1-2.4-1c-2.5-0.2-5-0.1-7.4-0.1c-0.3,0-0.8,0.4-0.9,0.7c-1,3.1-1.9,6.3-2.8,9.5
		c0.7,0,1.4,0,2,0c0.5-1.5,0.9-3,1.3-4.3c3.1-0.7,5.4,0.2,6.5,3.2c0.5,1.4,1.5,1.3,3,1c-1.1-1.6-2.1-3-3.1-4.4
		c4.4-1.8,4.6-2,3.8-4.7c1.6,0,3.2,0,4.9,0c-0.9,3.2-1.8,6.1-2.7,9.1c1.4,0.4,2.1,0.1,2.4-1.4c0.6-2.5,1.5-5,2.3-7.6
		C54.2,92.4,55.8,92.4,57.3,92.4z M1.7,101.4c0.4,0,0.7,0,1,0.1c1.4,0.2,2.1-0.2,2.3-1.7c0.2-1.1,0.6-2.2,0.9-3.4
		c0.2-0.8,0.6-1,1.4-1c1.9,0.1,3.9,0.2,5.8-0.1c1.8-0.2,3.6-0.6,5.2-1.4c1.9-0.9,2.6-3,2.2-4.6c-0.5-1.6-2.1-2.7-4.2-2.7
		c-3.1-0.1-6.3-0.1-9.4,0c-0.4,0-1,0.3-1.1,0.7C4.4,92,3.1,96.7,1.7,101.4z M17.9,67.5c-1.6,5.6-3.2,11.2-4.8,16.9
		c5.2,0,10.2,0,15.3,0c0.2-0.5,0.3-1.1,0.5-1.8c-4.1,0-8,0-12.1,0c1.5-5.1,2.9-10.1,4.3-15.2C19.9,67.5,18.9,67.5,17.9,67.5z
		 M85.4,96.4c1.1,1.3,2.1,2.7,3.2,4c0.8,0.9,3.3,1.6,4.4,1.1c0.2-0.1,0.4-0.4,0.5-0.7c0.9-3.1,1.8-6.3,2.8-9.5c-0.7,0-1.4,0-2,0
		c-0.9,3.2-1.9,6.3-2.9,9.7c-1.6-2-3-3.7-4.5-5.6c2.2-1.4,4.2-2.7,6.3-4c-4.2-0.5-6.5,3.1-10,4.3c0.4-1.5,0.8-3,1.2-4.4
		c-0.1-0.1-0.2-0.3-0.2-0.4c-0.6,0.3-1.7,0.5-1.8,1c-1,3.1-1.9,6.3-2.8,9.5c0.7,0,1.4,0,2,0C82.7,97.8,82.7,97.8,85.4,96.4z
		 M141.2,80.7c0.1,2.2,1.3,3.5,3.1,3.7c2.1,0.3,4.3,0.2,6.4,0c0.9-0.1,1.8-0.8,2.5-1.4c1.1-1,1.1-2.6-0.1-3.6c-0.6-0.5-1.3-0.8-2-1
		c-1.5-0.6-3-1-4.5-1.7c-0.5-0.2-1-0.9-1-1.3c0-0.5,0.5-1.1,1-1.3c2.4-1.3,5.4-0.3,6.6,2.1c0.6-0.1,1.2-0.2,2.2-0.3
		c-0.4-0.7-0.7-1.4-1.1-1.9c-2-2.1-8.1-2.2-10.2-0.2c-1.1,1.1-1.1,2.6,0.1,3.6c0.8,0.6,1.7,1,2.7,1.4c1.3,0.5,2.7,0.9,3.9,1.5
		c1.2,0.6,1.2,1.7,0.1,2.5c-2.6,1.9-6.6,0.8-7.7-2.2C142.6,80.6,142,80.6,141.2,80.7z M64.8,72.7c-0.8,2.6-1.4,5.2-2.3,7.7
		c-0.9,2.5-3.2,3.7-5.8,3.1c-2.4-0.6-2.8-1.4-2.2-3.7c0.6-2.3,1.3-4.6,2-7.1c-0.8,0-1.5,0-2.1,0c-0.1,0.1-0.2,0.1-0.2,0.2
		c-0.6,2.1-1.2,4.2-1.7,6.3c-0.9,3.4,0,4.9,3.5,5.6c3.6,0.7,7.1-0.4,8.3-3c1.3-2.9,2-5.9,3-9C66.1,72.7,65.5,72.7,64.8,72.7z
		 M122,72.8c-1.9-0.5-3.1,0.1-4.1,1.6c-2.3,3.1-4.7,6.1-7.1,9.1c-0.2,0.3-0.4,0.6-0.6,0.9c1.6,0.4,2.6-0.1,3.4-1.4
		c0.5-0.7,1.3-1.7,2-1.8c1.9-0.2,3.9-0.1,5.9-0.1c0.3,1.1,0.6,2.2,0.9,3.3c0.7,0,1.4,0,2.2,0C123.8,80.5,122.9,76.6,122,72.8z
		 M167.3,96.9c0.4-0.1,1-0.2,1.5-0.4c1.8-0.6,2.8-1.7,2.6-3c-0.2-1.4-1.3-2.2-3.3-2.3c-2.2-0.1-4.5,0-6.7,0c-0.4,0-0.9,0.3-1,0.6
		c-1,3.2-1.9,6.4-2.9,9.7c0.8,0,1.4,0,2,0c0.5-1.5,0.9-3,1.3-4.3c3.4-0.9,5.5,0.3,6.6,3.3c0.5,1.4,1.6,1.1,2.9,0.9
		C169.3,99.8,168.3,98.4,167.3,96.9z M104.7,96.9c0.4-0.1,1-0.2,1.6-0.4c1.8-0.6,2.8-1.7,2.6-3.1c-0.2-1.4-1.3-2.2-3.2-2.2
		c-2.3-0.1-4.6-0.1-6.8,0c-0.4,0-1,0.4-1.1,0.7c-1,3.1-1.9,6.3-2.8,9.5c0.7,0,1.4,0,2,0c0.5-1.5,0.9-3,1.3-4.3
		c3.2-0.8,5.4,0.2,6.5,3.2c0.5,1.4,1.5,1.2,3,1C106.7,99.7,105.7,98.3,104.7,96.9z M95.9,80.6c-1.2-0.3-2-0.1-2.8,1
		c-1.3,1.8-3.9,2.4-6.2,1.7c-1.8-0.6-2.8-1.9-2.6-3.8c0.2-2.5,1.4-4.4,3.8-5.4c2.3-1,5.1-0.7,6,0.8c0.7,1.2,1.5,1.2,2.6,1
		c-0.2-1.4-1.1-2.2-2.2-2.8c-3.5-1.8-8.7-0.6-11.1,2.5c-2.8,3.7-1.3,8.1,3.3,9.1C90.5,85.5,94.5,83.8,95.9,80.6z M143.3,99.4
		c-1.6-2.6-3.1-5.1-4.7-7.5c-0.3-0.4-1.1-0.6-1.6-0.7c-0.3,0-0.8,0.4-0.9,0.7c-0.9,3.1-1.8,6.3-2.7,9.4c1.4,0.5,2,0,2.4-1.4
		c0.5-2.2,1.3-4.4,1.9-6.8c1.4,2.4,2.9,4.6,4.1,6.9c0.7,1.3,1.5,1.7,2.9,1.2c1-3.3,1.9-6.7,2.9-10c-1.9-0.3-1.9-0.3-2.3,1.3
		C144.6,94.8,144,97,143.3,99.4z M70.8,93.2c1.4,2.4,2.8,4.6,4.1,6.9c0.7,1.3,1.5,1.8,2.9,1.3c1-3.3,1.9-6.6,2.9-10
		c-1.3-0.4-2-0.2-2.4,1.2c-0.5,2.3-1.3,4.5-1.9,6.8c-1.6-2.6-3.1-5-4.6-7.5c-0.6-1-2.3-1.1-2.5-0.2c-1,3.2-1.9,6.4-2.8,9.6
		c1.4,0.4,2.1,0,2.4-1.3C69.4,97.8,70.1,95.6,70.8,93.2z M25,101.7c3-0.2,5.4-1.3,6.9-3.2c1.6-2.2,1.2-4.9-1-6.3
		c-3.1-1.9-8.4-1.1-10.7,1.7c-2,2.4-1.3,5.7,1.6,6.9C22.7,101.3,23.9,101.4,25,101.7z M149.5,96.6c2.5,0,4.8,0,7.2,0
		c1,0,1,0,1.1-1.3c-2.6,0-5.2,0-7.9,0c0.3-1.1,0.6-2,0.9-3c2.5,0,5,0,7.5,0c0.8,0,1.4-0.1,1.1-1.2c-3.1,0-6.3,0-9.4,0
		c-0.3,0-0.9,0.3-1,0.6c-1,3.2-1.9,6.4-2.9,9.7c3.6,0,7,0,10.4,0c0.3,0,0.7-0.6,1-0.8c-0.1-0.1-0.2-0.3-0.3-0.4c-2.9,0-5.7,0-8.8,0
		C148.8,99,149.1,97.8,149.5,96.6z M132.8,91.2c-0.3,1.1-0.6,2.3-1,3.3c-0.1,0.3-0.5,0.8-0.8,0.8c-2.2,0.1-4.4,0-6.7,0
		c0.4-1.5,0.8-2.8,1.1-4.2c-0.7,0-1.3,0-2,0c-1,3.4-2,6.8-2.9,10.1c1.5,0.5,2.2,0,2.4-1.3c0.2-0.8,0.4-1.7,0.7-2.5
		c0.1-0.4,0.5-0.9,0.8-0.9c2.2-0.1,4.5,0,6.8,0c-0.5,1.7-0.9,3.2-1.3,4.7c0.1,0.1,0.2,0.2,0.3,0.4c0.6-0.3,1.7-0.5,1.8-0.9
		c1.1-3.1,1.9-6.3,2.9-9.6C134.1,91.2,133.5,91.2,132.8,91.2z M120.5,97.6c-0.7,0.4-1.5,0.6-2.1,1.1c-1.6,1.5-4.2,2.1-6.1,1.1
		c-0.6-0.3-1.2-0.9-1.4-1.5c-0.7-1.8,0.3-4,2.3-5.1c2-1.2,5-1.1,6,0.3c0.7,1,1.3,1.2,2.8,0.7c-0.8-0.9-1.4-1.8-2.2-2.3
		c-3-1.8-8.1-0.7-10.1,2.2c-1.2,1.8-1.3,4.3,0,5.7C112.1,102.7,119.5,101.9,120.5,97.6z"/>
	<path class="st0" d="M284.5,106.3c2-6.9,4-13.7,5.9-20.5c3.7-12.8,7.5-25.7,11.2-38.5c0.4-1.3,0.9-1.7,2.3-1.7
		c9.3,0.1,18.5,0,27.8,0.1c6.4,0,12.6,0.9,18.4,3.7c10.1,4.9,14,14.3,12.7,24.2c-2,15.2-11.7,24.4-25.4,29.7c-5.7,2.2-11.8,3-17.9,3
		c-11.4,0.1-22.8,0.1-34.2,0.1C285.1,106.4,284.9,106.3,284.5,106.3z M297.9,99.2c0.3,0.1,0.4,0.1,0.6,0.1c9,0,17.9,0.4,26.8-0.9
		c8.1-1.1,14.9-4.5,20.1-11c5.1-6.4,7.1-13.7,5.8-21.7c-1.1-6.8-6.8-11.9-14.5-12.5c-6.2-0.5-12.4-0.5-18.6-0.6
		c-2.2-0.1-4.3,0-6.5,0C306.9,68.2,302.4,83.7,297.9,99.2z"/>
	<path class="st0" d="M112.5,0c0.6,0,1,0,1.5,0c11.8,0,23.7-0.1,35.5,0.1c3.7,0,7.4,0.4,11,1.3c7.1,1.7,11.7,7.8,11.4,14.4
		c-0.2,4.6-2.4,8.3-5.5,11.5c-4.4,4.5-9.9,6.9-16,7.6c-5.7,0.7-11.5,1.1-17.2,1.3c-6,0.2-12,0-18.1,0c-0.5,0-1.1,0-1.7,0
		c-2.4,8.2-4.8,16.4-7.1,24.5c-3.8,0-7.5,0-11.4,0C100.7,40.5,106.6,20.3,112.5,0z M121.7,7.3c-2.1,7.1-4.2,14.4-6.4,22
		c9.1-0.2,18-0.2,26.8-0.5c3.4-0.1,6.8-0.8,10-2.3c3.6-1.8,6.6-4.1,8-8.1c1.4-4.1,0.1-7.9-3.5-9.5c-1.7-0.8-3.8-1.4-5.7-1.5
		C141.3,7.2,131.7,7.3,121.7,7.3z"/>
	<path class="st0" d="M187.1,45.7c3.6,0,7.1,0,10.9,0c4.5,17.2,9,34.4,13.5,51.4c2.4-3.4,5-7.2,7.8-10.9
		c9.8-13.2,19.7-26.3,29.5-39.5c0.6-0.8,1.2-1.1,2.1-1.1c3.3,0.1,6.7,0,10.2,0c-0.3,0.5-0.5,0.9-0.8,1.2
		c-14.7,19.5-29.5,39-44.2,58.5c-0.6,0.8-1.3,1.1-2.3,1.1c-3.2-0.1-6.4,0-9.6,0c-0.8,0-1.3-0.1-1.6-1.1
		c-5.2-19.7-10.4-39.4-15.6-59.1C187.1,46,187.1,45.9,187.1,45.7z"/>
	<path class="st0" d="M57.5,53.8c-0.7,2.5-1.3,4.7-2,7c-18.3,0-36.5,0-55,0C6.4,40.5,12.3,20.3,18.1,0.1c3.8,0,7.4,0,11.3,0
		C24.3,18,19.1,35.8,13.9,53.8C28.4,53.8,42.8,53.8,57.5,53.8z"/>
	<path d="M201.7,21.2c3.9,0,7.5-0.4,11.1,0.1c6.5,0.9,7.1,7.2,4.8,11.1c-1.7,2.8-4.2,4.8-7.3,5.1c-4.3,0.5-8.7,0.5-13.4,0.7
		C198.6,32.2,200.2,26.7,201.7,21.2z M200.7,36.3c2.8-0.2,5.3-0.2,7.8-0.5c3.8-0.5,6.7-3.5,7.1-7.4c0.3-3-1.2-5-4.2-5.4
		c-2-0.2-4-0.2-6-0.2c-0.3,0-0.9,0.5-1,0.8C203.1,27.8,201.9,31.9,200.7,36.3z"/>
	<path d="M202.9,1.4c3-0.3,3-0.4,3.8,2.4c1,3.8,2,7.7,3.1,11.7c1.4-1.9,2.8-3.8,4.2-5.7c1.7-2.2,3.5-4.4,4.9-6.7
		c1.2-1.9,2.6-2,4.6-1.6c-1.6,2.1-3.2,4.2-4.7,6.2c-2.4,3.2-4.9,6.4-7.3,9.7c-1.1,1.5-2.5,0.8-3.7,0.8c-0.3,0-0.8-1-0.9-1.6
		C205.6,11.5,204.3,6.4,202.9,1.4z"/>
	<path d="M335.2,37.8c1.1-3.7,2.1-7.4,3.2-11c0.1-0.3,0.7-0.7,1-0.6c0.7,0.1,1.6,0.3,1.9,0.8c1.8,2.8,3.5,5.7,5.2,8.7
		c0.7-2.6,1.5-5.2,2.2-7.8c0.5-1.8,0.5-1.8,2.7-1.5c-1.1,3.7-2.1,7.4-3.3,11.1c-0.1,0.3-0.6,0.5-1,0.6c-0.7,0.1-1.4,0.1-1.9-0.8
		c-1.4-2.7-3-5.2-4.6-7.8c-0.1-0.2-0.3-0.5-0.6-0.9c-0.8,2.8-1.6,5.3-2.3,7.9C337.3,38.2,337.3,38.2,335.2,37.8z"/>
	<path d="M319.5,33.4c-2,0-3.5,0-5.1,0c-0.1-0.1-0.1-0.3-0.2-0.4c0.4-0.3,0.7-0.8,1.1-0.8c2.1-0.1,4.2,0,6.5,0
		c-0.4,1.4-0.7,2.8-1.2,4.1c-0.1,0.4-0.5,0.7-0.9,0.9c-2.7,1.1-5.5,1.5-8.4,0.9c-3.7-0.9-5.3-4.1-3.6-7.6c1.3-2.7,3.7-4.3,6.6-4.5
		c1.9-0.1,4,0.2,5.9,0.7c1,0.3,1.7,1.5,2.4,2.5c-1.3,0.4-2.2,0.5-3-0.8c-0.4-0.6-1.5-1-2.3-1.2c-3.3-0.8-6.7,1.2-7.6,4.3
		c-0.9,3.2,0.6,5.4,3.9,5.4c1.5,0,3-0.4,4.4-1C318.6,35.7,318.9,34.5,319.5,33.4z"/>
	<path d="M269.7,9.6c-1.1,0.2-1.7,0.2-2.3,0.3c-1.3-2.4-4.2-3.4-6.6-2.1c-0.5,0.2-1,0.9-1,1.3c0,0.5,0.5,1.1,1,1.3
		c1.2,0.6,2.5,0.9,3.8,1.4c0.7,0.2,1.3,0.5,2,0.8c2.2,1.2,2.3,3.4,0.2,4.7c-3,1.8-6.3,1.8-9.4,0.3c-0.9-0.4-1.4-1.7-2.1-2.6
		c0.1-0.2,0.2-0.3,0.3-0.5c0.7-0.1,1.3-0.2,2-0.3c1.1,3,5.1,4.2,7.7,2.2c1.1-0.8,1.1-1.9-0.1-2.5c-1-0.5-2.1-0.8-3.1-1.2
		c-1.1-0.4-2.2-0.8-3.2-1.4c-1.7-1.1-1.7-2.9-0.1-4.1c2.1-1.6,7.3-1.6,9.3,0.1C268.7,7.9,269.1,8.7,269.7,9.6z"/>
	<path d="M274.6,29.7c-1-2.5-4.8-3.5-6.9-1.9c-1,0.7-0.9,1.9,0.2,2.4c1.2,0.6,2.5,1,3.8,1.4c0.6,0.2,1.2,0.4,1.7,0.6
		c1.1,0.5,2,1.1,2.1,2.5c0,1.4-0.9,2.1-1.9,2.6c-2.8,1.3-5.7,1.3-8.5,0.2c-1.5-0.5-2.2-1.7-2.2-3.4c0.7-0.1,1.3-0.1,1.9-0.2
		c1.2,2.9,4.7,4.1,7.4,2.4c0.5-0.3,1-1,1-1.5c0-0.4-0.6-1.1-1.1-1.3c-1.1-0.5-2.4-0.9-3.5-1.3c-0.8-0.3-1.6-0.6-2.3-1
		c-1.9-1.2-1.9-3.3,0-4.4c2.9-1.5,5.9-1.5,8.8,0c0.8,0.4,1.2,1.4,2.1,2.4C276,29.5,275.3,29.6,274.6,29.7z"/>
	<path d="M239.1,26.2c4,0,7.8,0,11.7,0c0.3,1-0.2,1.2-1,1.2c-2.5,0-5,0-7.4,0c-1,0-1.5,0.2-1.6,1.3c-0.1,0.9-0.5,1.7-0.7,2.7
		c3.2,0,6.2,0,9.2,0c0.1,1.1-0.4,1.2-1.2,1.2c-2.4,0-4.8,0-7.1,0c-0.9,0-1.4,0.2-1.6,1.2c-0.2,1-0.5,1.9-0.8,3.1c3.4,0,6.8,0,10.2,0
		c0.1,0.1,0.1,0.3,0.2,0.4c-0.4,0.3-0.8,0.8-1.2,0.8c-3.8,0.1-7.7,0-11.7,0C236.9,34,238,30.1,239.1,26.2z"/>
	<path d="M284.8,6.5c0.8,0,1.4,0,2.3,0c-0.7,2.4-1.3,4.7-1.9,7c-0.7,2.4-0.2,3.2,2.2,3.8c2.5,0.6,4.8-0.6,5.7-3c0.7-2,1.4-4,1.8-6.1
		c0.3-1.6,1.1-2,2.8-1.5c-0.8,2.7-1.5,5.4-2.4,8.1c-0.6,1.8-1.9,3.1-3.8,3.4c-2,0.3-4.1,0.4-6.1,0c-2.4-0.4-3.2-2.1-2.6-4.4
		C283.4,11.3,284.1,8.9,284.8,6.5z"/>
	<path d="M322.1,18.2c-0.8,0-1.4,0-2.2,0c-0.3-1-0.6-2.1-0.9-3.3c-2,0-4-0.2-6,0.1c-0.7,0.1-1.5,1.1-2,1.8c-0.8,1.3-1.8,1.7-3.5,1.3
		c1.4-1.8,2.7-3.5,4.1-5.2c1.2-1.6,2.5-3,3.6-4.7c1-1.5,2.1-2.2,4.1-1.6C320.3,10.3,321.2,14.2,322.1,18.2z M313.6,13.6
		c1.9,0,3.6,0,5.3,0c-0.4-1.8-0.7-3.5-1.1-5.5C316.3,10,315,11.7,313.6,13.6z"/>
	<path d="M335.3,18.3c1.1-3.8,2-7.5,3.2-11.1c0.2-0.5,1.4-0.7,2.1-1c0.1,0.1,0.2,0.3,0.3,0.4c-1,3.4-1.9,6.9-2.9,10.4
		c2.9,0,5.6,0,8.3,0c0.1,0.1,0.1,0.3,0.2,0.4c-0.4,0.3-0.8,0.8-1.1,0.8C342.1,18.3,338.8,18.3,335.3,18.3z"/>
	<path d="M292.3,26.2c0.8,0,1.4,0,2.3,0c-1.1,4-2.3,7.8-3.4,11.8c-0.8,0-1.5,0-2.3,0C290,34,291.1,30.1,292.3,26.2z"/>
	<path d="M241.2,6.5c0.8,0,1.5,0,2.3,0c-1.1,4-2.3,7.8-3.4,11.7c-0.7,0-1.4,0-2.3,0C239,14.3,240.1,10.4,241.2,6.5z"/>
	<path d="M1.7,101.4c1.4-4.8,2.7-9.5,4.1-14.1c0.1-0.3,0.7-0.7,1.1-0.7c3.1,0,6.3-0.1,9.4,0c2.1,0,3.7,1.2,4.2,2.7
		c0.5,1.6-0.3,3.7-2.2,4.6c-1.6,0.8-3.4,1.2-5.2,1.4c-1.9,0.2-3.8,0.1-5.8,0.1c-0.8,0-1.2,0.2-1.4,1c-0.3,1.1-0.7,2.2-0.9,3.4
		c-0.2,1.5-1,2-2.3,1.7C2.4,101.5,2.1,101.5,1.7,101.4z M6.8,93.7c2.7-0.1,5.2-0.2,7.7-0.5c0.8-0.1,1.8-0.6,2.4-1.2
		c0.5-0.5,0.8-1.5,0.7-2.1c-0.1-0.5-1-1.2-1.7-1.2c-2.3-0.2-4.6-0.2-7-0.2c-0.3,0-0.7,0.4-0.8,0.6C7.7,90.6,7.3,92,6.8,93.7z"/>
	<path d="M17.9,67.5c1.1,0,2,0,3.2,0c-1.4,5-2.8,10-4.3,15.2c4.1,0,8,0,12.1,0c-0.2,0.7-0.4,1.2-0.5,1.8c-5.1,0-10.1,0-15.3,0
		C14.7,78.7,16.3,73.1,17.9,67.5z"/>
	<path d="M85.4,96.4c-2.8,1.4-2.8,1.4-4,5c-0.6,0-1.2,0-2,0c0.9-3.2,1.8-6.4,2.8-9.5c0.2-0.5,1.2-0.7,1.8-1c0.1,0.1,0.2,0.3,0.2,0.4
		c-0.4,1.4-0.8,2.9-1.2,4.4c3.5-1.2,5.8-4.9,10-4.3c-2.1,1.3-4.1,2.6-6.3,4c1.5,1.8,2.8,3.6,4.5,5.6c1-3.4,1.9-6.5,2.9-9.7
		c0.6,0,1.3,0,2,0c-0.9,3.2-1.8,6.3-2.8,9.5c-0.1,0.3-0.2,0.6-0.5,0.7c-1,0.5-3.6-0.1-4.4-1.1C87.6,99.1,86.5,97.7,85.4,96.4z"/>
	<path d="M141.2,80.7c0.7-0.1,1.4-0.1,2-0.2c1.1,3,5.1,4.1,7.7,2.2c1.1-0.8,1.1-1.9-0.1-2.5c-1.3-0.6-2.6-1-3.9-1.5
		c-0.9-0.4-1.9-0.8-2.7-1.4c-1.2-0.9-1.2-2.5-0.1-3.6c2.1-2,8.2-1.9,10.2,0.2c0.4,0.5,0.7,1.2,1.1,1.9c-0.9,0.1-1.5,0.2-2.2,0.3
		c-1.2-2.4-4.2-3.4-6.6-2.1c-0.5,0.2-1,0.9-1,1.3c0,0.5,0.5,1.1,1,1.3c1.5,0.6,3,1.1,4.5,1.7c0.7,0.3,1.4,0.6,2,1
		c1.2,1,1.3,2.5,0.1,3.6c-0.7,0.6-1.6,1.3-2.5,1.4c-2.1,0.2-4.3,0.3-6.4,0C142.5,84.2,141.4,82.9,141.2,80.7z"/>
	<path d="M64.8,72.7c0.7,0,1.3,0,2.3,0c-1,3.1-1.7,6.2-3,9c-1.1,2.6-4.7,3.6-8.3,3c-3.4-0.6-4.4-2.2-3.5-5.6
		c0.6-2.1,1.2-4.2,1.7-6.3c0,0,0.1-0.1,0.2-0.2c0.6,0,1.3,0,2.1,0c-0.7,2.4-1.3,4.7-2,7.1c-0.6,2.3-0.2,3.1,2.2,3.7
		c2.6,0.6,4.9-0.5,5.8-3.1C63.3,77.9,64,75.3,64.8,72.7z"/>
	<path d="M122,72.8c0.9,3.8,1.7,7.7,2.6,11.6c-0.8,0-1.4,0-2.2,0c-0.3-1.1-0.6-2.1-0.9-3.3c-2,0-4-0.2-5.9,0.1c-0.7,0.1-1.5,1-2,1.8
		c-0.8,1.3-1.8,1.8-3.4,1.4c0.2-0.3,0.3-0.6,0.6-0.9c2.4-3,4.8-6,7.1-9.1C119,72.9,120.1,72.2,122,72.8z M120.3,74.4
		c-1.4,1.9-2.7,3.6-4.1,5.5c1.9,0,3.5,0,5.2,0C121,78,120.7,76.3,120.3,74.4z"/>
	<path d="M45.6,92.3c0.8,2.7,0.6,2.8-3.8,4.7c1,1.4,2,2.8,3.1,4.4c-1.5,0.2-2.5,0.4-3-1c-1.1-3.1-3.4-3.9-6.5-3.2
		c-0.4,1.3-0.9,2.8-1.3,4.3c-0.6,0-1.3,0-2,0c0.9-3.2,1.8-6.4,2.8-9.5c0.1-0.3,0.6-0.7,0.9-0.7c2.5,0,5-0.1,7.4,0.1
		C44.1,91.3,44.9,92,45.6,92.3C45.7,92.3,45.6,92.3,45.6,92.3z M36.8,92.4c-0.3,1.1-0.6,2.2-1,3.5c2.4-0.2,4.5-0.2,6.6-0.6
		c0.6-0.1,1-1.1,1.5-1.7c-0.6-0.4-1.1-1.1-1.7-1.1C40.5,92.3,38.7,92.4,36.8,92.4z"/>
	<path d="M167.3,96.9c1,1.5,2,2.9,3.2,4.5c-1.4,0.1-2.4,0.4-2.9-0.9c-1.1-2.9-3.2-4.2-6.6-3.3c-0.4,1.2-0.8,2.7-1.3,4.3
		c-0.6,0-1.2,0-2,0c1-3.3,1.9-6.5,2.9-9.7c0.1-0.3,0.7-0.6,1-0.6c2.2-0.1,4.5-0.1,6.7,0c2,0,3.1,0.9,3.3,2.3c0.2,1.4-0.8,2.5-2.6,3
		C168.3,96.7,167.7,96.8,167.3,96.9z M162.3,92.4c-0.3,1.2-0.6,2.2-0.9,3.3c1,0,1.7,0,2.4,0c1.4-0.1,2.8-0.1,4.2-0.4
		c0.6-0.2,1-1.1,1.5-1.7c-0.6-0.4-1.2-1-1.9-1.1C165.8,92.3,164.1,92.4,162.3,92.4z"/>
	<path d="M104.7,96.9c1,1.4,2,2.8,3.2,4.5c-1.4,0.2-2.5,0.4-3-1c-1.1-3-3.3-4-6.5-3.2c-0.4,1.3-0.9,2.8-1.3,4.3c-0.6,0-1.2,0-2,0
		c0.9-3.2,1.8-6.3,2.8-9.5c0.1-0.3,0.7-0.7,1.1-0.7c2.3-0.1,4.6-0.1,6.8,0c1.9,0.1,3,0.9,3.2,2.2c0.2,1.4-0.7,2.5-2.6,3.1
		C105.7,96.7,105.1,96.8,104.7,96.9z M98.7,95.7c1.2,0,2.1,0,3,0c1.2-0.1,2.5-0.1,3.7-0.4c0.6-0.2,1-1.2,1.4-1.8
		c-0.6-0.4-1.2-1-1.8-1c-1.8-0.1-3.6,0-5.4,0C99.4,93.5,99.1,94.6,98.7,95.7z"/>
	<path d="M95.9,80.6c-1.5,3.2-5.4,4.8-9.2,4c-4.5-1-6.1-5.4-3.3-9.1c2.4-3.1,7.6-4.3,11.1-2.5c1.1,0.6,2,1.3,2.2,2.8
		c-1.1,0.2-1.9,0.3-2.6-1c-0.9-1.5-3.7-1.8-6-0.8c-2.4,1-3.6,2.9-3.8,5.4c-0.1,1.8,0.9,3.2,2.6,3.8c2.3,0.7,4.8,0.2,6.2-1.7
		C93.9,80.5,94.7,80.4,95.9,80.6z"/>
	<path d="M143.3,99.4c0.7-2.3,1.3-4.6,1.9-6.8c0.5-1.6,0.5-1.6,2.3-1.3c-1,3.3-1.9,6.7-2.9,10c-1.4,0.5-2.2,0.1-2.9-1.2
		c-1.3-2.3-2.7-4.5-4.1-6.9c-0.7,2.3-1.4,4.5-1.9,6.8c-0.3,1.4-0.9,1.9-2.4,1.4c0.9-3.1,1.8-6.3,2.7-9.4c0.1-0.3,0.6-0.7,0.9-0.7
		c0.6,0.1,1.3,0.3,1.6,0.7C140.2,94.3,141.7,96.7,143.3,99.4z"/>
	<path d="M70.8,93.2c-0.7,2.4-1.4,4.6-1.9,6.8c-0.3,1.4-1,1.7-2.4,1.3c0.9-3.2,1.8-6.4,2.8-9.6c0.3-0.9,1.9-0.8,2.5,0.2
		c1.5,2.4,3,4.9,4.6,7.5c0.7-2.3,1.4-4.5,1.9-6.8c0.3-1.4,1.1-1.6,2.4-1.2c-1,3.4-1.9,6.7-2.9,10c-1.5,0.6-2.3,0-2.9-1.3
		C73.7,97.8,72.3,95.6,70.8,93.2z"/>
	<path d="M25,101.7c-1.1-0.3-2.3-0.4-3.3-0.9c-2.9-1.2-3.6-4.5-1.6-6.9c2.3-2.8,7.6-3.7,10.7-1.7c2.2,1.4,2.7,4.1,1,6.3
		C30.4,100.4,28,101.5,25,101.7z M25.3,100.3c2.2,0,4.3-1.2,5.1-2.9c1-2.1,0.2-4-2-4.7c-1.7-0.6-3.4-0.3-5,0.6c-1.9,1-2.9,3-2.3,4.8
		C21.5,99.3,23.4,100.3,25.3,100.3z"/>
	<path d="M57.6,91.5c0.3-0.1,0.5-0.3,0.8-0.3c3.2,0,6.5,0,9.7,0c0.3,1.2-0.4,1.2-1.2,1.2c-2.4,0-4.9,0-7.4,0c-0.3,1-0.6,1.9-0.9,3
		c2.8,0,5.4,0,8,0c0.2,1.2-0.4,1.3-1.2,1.3c-2.3,0-4.7,0-7.1,0c-0.3,1.1-0.7,2.3-1.1,3.6c3.1,0,6,0,8.9,0c0.1,0.2,0.1,0.3,0.2,0.5
		c-0.4,0.3-0.8,0.8-1.1,0.8c-3.4,0.1-6.8,0-10.3,0c0.8-3.1,1.6-6.1,2.4-9.1C57.4,92.1,57.5,91.8,57.6,91.5z"/>
	<path d="M149.5,96.6c-0.4,1.2-0.7,2.3-1.1,3.6c3,0,5.9,0,8.8,0c0.1,0.1,0.2,0.3,0.3,0.4c-0.3,0.3-0.6,0.8-1,0.8
		c-3.4,0.1-6.9,0-10.4,0c1-3.3,1.9-6.5,2.9-9.7c0.1-0.3,0.6-0.6,1-0.6c3.1,0,6.3,0,9.4,0c0.4,1.1-0.3,1.2-1.1,1.2
		c-2.5,0-4.9,0-7.5,0c-0.3,1-0.6,1.9-0.9,3c2.7,0,5.3,0,7.9,0c0,1.3,0,1.3-1.1,1.3C154.3,96.7,151.9,96.6,149.5,96.6z"/>
	<path d="M132.8,91.2c0.6,0,1.2,0,2,0c-1,3.3-1.8,6.4-2.9,9.6c-0.2,0.5-1.2,0.6-1.8,0.9c-0.1-0.1-0.2-0.2-0.3-0.4
		c0.4-1.5,0.8-3,1.3-4.7c-2.4,0-4.6,0-6.8,0c-0.3,0-0.7,0.5-0.8,0.9c-0.3,0.8-0.5,1.6-0.7,2.5c-0.2,1.3-0.9,1.8-2.4,1.3
		c1-3.3,1.9-6.7,2.9-10.1c0.7,0,1.3,0,2,0c-0.4,1.4-0.7,2.7-1.1,4.2c2.3,0,4.5,0,6.7,0c0.3,0,0.7-0.5,0.8-0.8
		C132.2,93.5,132.5,92.4,132.8,91.2z"/>
	<path d="M120.5,97.6c-1,4.3-8.4,5.1-11,2.2c-1.2-1.4-1.2-3.9,0-5.7c2-2.9,7.1-4,10.1-2.2c0.8,0.5,1.4,1.4,2.2,2.3
		c-1.5,0.5-2.1,0.2-2.8-0.7c-1-1.4-4-1.5-6-0.3c-2,1.1-3,3.3-2.3,5.1c0.2,0.6,0.8,1.2,1.4,1.5c2,1,4.5,0.5,6.1-1.1
		C119,98.2,119.8,98,120.5,97.6z"/>
	<path d="M57.6,91.5c-0.1,0.3-0.2,0.6-0.3,0.9c-1.6,0-3.1,0-4.7,0c-0.8,2.6-1.6,5.1-2.3,7.6c-0.3,1.4-1,1.8-2.4,1.4
		c0.9-2.9,1.7-5.8,2.7-9.1c-1.8,0-3.3,0-4.9,0c0,0,0,0,0,0c0.3-1,0.9-1.2,1.9-1.2c2.9,0.1,5.8,0,8.7,0
		C56.7,91.2,57.2,91.4,57.6,91.5z"/>
	<path d="M297.9,99.2c4.5-15.5,9-31,13.5-46.6c2.2,0,4.4,0,6.5,0c6.2,0.2,12.4,0.2,18.6,0.6c7.7,0.6,13.4,5.6,14.5,12.5
		c1.3,8.1-0.7,15.3-5.8,21.7c-5.1,6.5-12,9.9-20.1,11c-8.9,1.3-17.9,0.9-26.8,0.9C298.3,99.4,298.2,99.3,297.9,99.2z"/>
	<path d="M121.7,7.3c10,0,19.6-0.1,29.3,0.1c1.9,0,3.9,0.7,5.7,1.5c3.6,1.7,4.9,5.5,3.5,9.5c-1.4,3.9-4.4,6.3-8,8.1
		c-3.1,1.6-6.5,2.2-10,2.3c-8.8,0.3-17.7,0.4-26.8,0.5C117.5,21.7,119.7,14.4,121.7,7.3z"/>
	<path class="st0" d="M200.7,36.3c1.3-4.4,2.4-8.5,3.7-12.6c0.1-0.3,0.6-0.8,1-0.8c2,0,4,0,6,0.2c3,0.3,4.5,2.4,4.2,5.4
		c-0.4,3.8-3.2,6.9-7.1,7.4C206,36.1,203.5,36.1,200.7,36.3z"/>
	<path class="st0" d="M313.6,13.6c1.4-1.9,2.7-3.6,4.1-5.5c0.4,1.9,0.8,3.7,1.1,5.5C317.2,13.6,315.5,13.6,313.6,13.6z"/>
	<path class="st0" d="M6.8,93.7c0.5-1.7,0.8-3.2,1.3-4.6c0.1-0.3,0.5-0.6,0.8-0.6c2.3,0,4.6,0,6.8,0.2c0.6,0.1,1.5,0.7,1.6,1.2
		c0.2,0.6-0.2,1.6-0.7,2.1c-0.6,0.6-1.5,1.1-2.3,1.2C12,93.5,9.5,93.6,6.8,93.7z"/>
	<path class="st0" d="M120.3,74.4c0.4,1.9,0.7,3.6,1.1,5.5c-1.7,0-3.3,0-5.2,0C117.5,78,118.8,76.3,120.3,74.4z"/>
	<path class="st0" d="M36.8,92.4c1.9,0,3.7-0.1,5.5,0.1c0.6,0,1.1,0.7,1.7,1.1c-0.5,0.6-0.9,1.6-1.5,1.7c-2.1,0.4-4.3,0.4-6.6,0.6
		C36.2,94.6,36.5,93.5,36.8,92.4z"/>
	<path class="st0" d="M162.3,92.4c1.8,0,3.6-0.1,5.3,0.1c0.7,0.1,1.2,0.7,1.9,1.1c-0.5,0.6-0.9,1.6-1.5,1.7
		c-1.3,0.4-2.8,0.3-4.2,0.4c-0.7,0-1.4,0-2.4,0C161.7,94.6,162,93.5,162.3,92.4z"/>
	<path class="st0" d="M98.7,95.7c0.3-1.2,0.6-2.2,0.9-3.3c1.8,0,3.6-0.1,5.4,0c0.6,0,1.2,0.7,1.8,1c-0.5,0.6-0.8,1.6-1.4,1.8
		c-1.2,0.4-2.5,0.4-3.7,0.4C100.8,95.8,99.9,95.7,98.7,95.7z"/>
	<path class="st0" d="M25.3,100.3c-1.9,0-3.8-1-4.1-2.3c-0.5-1.8,0.4-3.7,2.3-4.8c1.6-0.8,3.2-1.1,5-0.6c2.2,0.7,3,2.6,2,4.7
		C29.5,99.1,27.5,100.3,25.3,100.3z"/>
</g>
</svg>
